# xmcd CD database file
#
# Track frame offsets:
#	150
#	41645
#	71440
#	97070
#	117587
#	154312
#
# Disc length: 2558 seconds
#
# Revision: 5
# Processed by: cddbd v1.5.2PL0 Copyright (c) Steve Scherf et al.
# Submitted via: CDex 1.51
#
DISCID=5209fc06
DTITLE=Buddy Guy - Stone Crazy!
DYEAR=1981
DGENRE=Blues
TTITLE0=I Smell A Rat
TTITLE1=Are You Losing Your Mind?
TTITLE2=You've Been Gone Too Long
TTITLE3=She's Out There Somewhere
TTITLE4=Outskirts Of Town
TTITLE5=When I Left Home
EXTD=YEAR: 1981
EXTT0=
EXTT1=
EXTT2=
EXTT3=
EXTT4=
EXTT5=
PLAYORDER=
